<?xml version="1.0" encoding="UTF-8"?>
<!-- Do not edit this file with editors other than draw.io -->
<!DOCTYPE svg PUBLIC "-//W3C//DTD SVG 1.1//EN" "http://www.w3.org/Graphics/SVG/1.1/DTD/svg11.dtd">
<svg xmlns="http://www.w3.org/2000/svg" style="background: transparent; background-color: transparent; color-scheme: light dark;" xmlns:xlink="http://www.w3.org/1999/xlink" version="1.1" width="757px" height="390px" viewBox="0 0 757 390" content="&lt;mxfile host=&quot;app.diagrams.net&quot;&gt;&#xA;  &lt;diagram id=&quot;server-side&quot; name=&quot;The loop that runs inside Bedrock&quot;&gt;&#xA;    &lt;mxGraphModel dx=&quot;958&quot; dy=&quot;664&quot; grid=&quot;1&quot; gridSize=&quot;10&quot; guides=&quot;1&quot; tooltips=&quot;1&quot; connect=&quot;1&quot; arrows=&quot;1&quot; fold=&quot;1&quot; page=&quot;1&quot; pageScale=&quot;1&quot; pageWidth=&quot;1100&quot; pageHeight=&quot;700&quot; math=&quot;0&quot; shadow=&quot;0&quot;&gt;&#xA;      &lt;root&gt;&#xA;        &lt;mxCell id=&quot;0&quot; /&gt;&#xA;        &lt;mxCell id=&quot;1&quot; parent=&quot;0&quot; /&gt;&#xA;        &lt;mxCell id=&quot;ss-label&quot; parent=&quot;1&quot; style=&quot;text;html=0;align=left;verticalAlign=middle;fontSize=12;fontStyle=1;fontColor=#232F3E;&quot; value=&quot;Server-side&quot; vertex=&quot;1&quot;&gt;&#xA;          &lt;mxGeometry height=&quot;20&quot; width=&quot;100&quot; x=&quot;40&quot; y=&quot;170&quot; as=&quot;geometry&quot; /&gt;&#xA;        &lt;/mxCell&gt;&#xA;        &lt;mxCell id=&quot;process&quot; parent=&quot;1&quot; style=&quot;rounded=1;whiteSpace=wrap;html=0;fillColor=#FFFFFF;strokeColor=#3F4B57;strokeWidth=2;fontStyle=1;fontSize=10;fontColor=#232F3E;shadow=1;arcSize=8;verticalAlign=middle;align=center;&quot; value=&quot;Your process&amp;#xa;(one create() call, then waits)&quot; vertex=&quot;1&quot;&gt;&#xA;          &lt;mxGeometry height=&quot;50&quot; width=&quot;200&quot; x=&quot;30&quot; y=&quot;192.5&quot; as=&quot;geometry&quot; /&gt;&#xA;        &lt;/mxCell&gt;&#xA;        &lt;mxCell id=&quot;region&quot; parent=&quot;1&quot; style=&quot;rounded=1;whiteSpace=wrap;html=1;fillColor=#E8F4FD;strokeColor=#147EB4;strokeWidth=2;arcSize=3;opacity=50;&quot; value=&quot;&quot; vertex=&quot;1&quot;&gt;&#xA;          &lt;mxGeometry height=&quot;340&quot; width=&quot;480&quot; x=&quot;300&quot; y=&quot;130&quot; as=&quot;geometry&quot; /&gt;&#xA;        &lt;/mxCell&gt;&#xA;        &lt;mxCell id=&quot;region-label&quot; parent=&quot;1&quot; style=&quot;text;html=0;align=left;verticalAlign=middle;fontSize=11;fontStyle=1;fontColor=#147EB4;&quot; value=&quot;AWS Region&quot; vertex=&quot;1&quot;&gt;&#xA;          &lt;mxGeometry height=&quot;20&quot; width=&quot;100&quot; x=&quot;315&quot; y=&quot;140&quot; as=&quot;geometry&quot; /&gt;&#xA;        &lt;/mxCell&gt;&#xA;        &lt;mxCell id=&quot;endpoint&quot; parent=&quot;1&quot; style=&quot;rounded=1;whiteSpace=wrap;html=0;fillColor=#FFFFFF;strokeColor=#3F4B57;strokeWidth=2;fontStyle=0;fontSize=10;fontColor=#232F3E;shadow=1;arcSize=8;verticalAlign=middle;align=center;&quot; value=&quot;bedrock-mantle endpoint&amp;#xa;&amp;#xa;discover → decide → invoke → feed back&amp;#xa;(Bedrock runs the loop)&quot; vertex=&quot;1&quot;&gt;&#xA;          &lt;mxGeometry height=&quot;75&quot; width=&quot;250&quot; x=&quot;335&quot; y=&quot;180&quot; as=&quot;geometry&quot; /&gt;&#xA;        &lt;/mxCell&gt;&#xA;        &lt;mxCell id=&quot;lambda&quot; parent=&quot;1&quot; style=&quot;rounded=1;whiteSpace=wrap;html=0;fillColor=#FFF4E8;strokeColor=#E07D1A;strokeWidth=2;fontStyle=0;fontSize=9;fontColor=#8A4B00;shadow=1;arcSize=8;verticalAlign=middle;align=center;&quot; value=&quot;Lambda function&amp;#xa;(MCP: tools/list + tools/call)&amp;#xa;&amp;#xa;connector_id = function ARN&amp;#xa;require_approval = &amp;quot;never&amp;quot;&quot; vertex=&quot;1&quot;&gt;&#xA;          &lt;mxGeometry height=&quot;80&quot; width=&quot;220&quot; x=&quot;350&quot; y=&quot;320&quot; as=&quot;geometry&quot; /&gt;&#xA;        &lt;/mxCell&gt;&#xA;        &lt;mxCell id=&quot;iam-trap&quot; parent=&quot;1&quot; style=&quot;rounded=1;whiteSpace=wrap;html=0;fillColor=#F9F2F4;strokeColor=#C9184A;strokeWidth=1;fontSize=8;fontColor=#6B0F2A;shadow=0;arcSize=12;verticalAlign=middle;align=center;&quot; value=&quot;Must carry the same role as the caller&amp;#xa;— no credentials are passed&quot; vertex=&quot;1&quot;&gt;&#xA;          &lt;mxGeometry height=&quot;30&quot; width=&quot;220&quot; x=&quot;350&quot; y=&quot;410&quot; as=&quot;geometry&quot; /&gt;&#xA;        &lt;/mxCell&gt;&#xA;        &lt;mxCell id=&quot;o_o7y25AFnU1UaesMd0Z-3&quot; edge=&quot;1&quot; parent=&quot;1&quot; source=&quot;vpc&quot; style=&quot;edgeStyle=orthogonalEdgeStyle;rounded=0;orthogonalLoop=1;jettySize=auto;html=1;&quot; target=&quot;lambda&quot; value=&quot;&quot;&gt;&#xA;          &lt;mxGeometry relative=&quot;1&quot; as=&quot;geometry&quot;&gt;&#xA;            &lt;Array as=&quot;points&quot;&gt;&#xA;              &lt;mxPoint x=&quot;610&quot; y=&quot;350&quot; /&gt;&#xA;              &lt;mxPoint x=&quot;610&quot; y=&quot;350&quot; /&gt;&#xA;            &lt;/Array&gt;&#xA;          &lt;/mxGeometry&gt;&#xA;        &lt;/mxCell&gt;&#xA;        &lt;mxCell id=&quot;vpc&quot; parent=&quot;1&quot; style=&quot;rounded=1;whiteSpace=wrap;html=0;fillColor=#F0F8FF;strokeColor=#0073BB;strokeWidth=1.5;fontSize=9;fontColor=#232F3E;shadow=1;arcSize=8;verticalAlign=middle;align=center;dashed=1;dashPattern=6 3;&quot; value=&quot;Private VPC resource&amp;#xa;(described, not deployed)&quot; vertex=&quot;1&quot;&gt;&#xA;          &lt;mxGeometry height=&quot;50&quot; width=&quot;120&quot; x=&quot;650&quot; y=&quot;335&quot; as=&quot;geometry&quot; /&gt;&#xA;        &lt;/mxCell&gt;&#xA;        &lt;mxCell id=&quot;e1&quot; edge=&quot;1&quot; parent=&quot;1&quot; source=&quot;process&quot; style=&quot;rounded=1;exitX=1;exitY=0.5;entryX=0;entryY=0.5;strokeWidth=2;strokeColor=#545B64;curved=1;fontSize=9;fontStyle=1;fontColor=#545B64;labelBackgroundColor=#FFFFFF;&quot; target=&quot;endpoint&quot; value=&quot;1 request&quot;&gt;&#xA;          &lt;mxGeometry relative=&quot;1&quot; as=&quot;geometry&quot; /&gt;&#xA;        &lt;/mxCell&gt;&#xA;        &lt;mxCell id=&quot;e2&quot; edge=&quot;1&quot; parent=&quot;1&quot; source=&quot;endpoint&quot; style=&quot;rounded=0;exitX=0.5;exitY=1;entryX=0.5;entryY=0;strokeWidth=2;strokeColor=#E07D1A;&quot; target=&quot;lambda&quot;&gt;&#xA;          &lt;mxGeometry relative=&quot;1&quot; as=&quot;geometry&quot; /&gt;&#xA;        &lt;/mxCell&gt;&#xA;        &lt;mxCell id=&quot;e3&quot; edge=&quot;1&quot; parent=&quot;1&quot; source=&quot;lambda&quot; style=&quot;rounded=1;exitX=1;exitY=0.5;entryX=0;entryY=0.5;strokeWidth=1.5;strokeColor=#0073BB;curved=1;fontSize=8;fontStyle=2;fontColor=#0073BB;labelBackgroundColor=#FFFFFF;&quot; target=&quot;vpc&quot; value=&quot;reaches private system&quot;&gt;&#xA;          &lt;mxGeometry relative=&quot;1&quot; x=&quot;0.1325&quot; y=&quot;-17&quot; as=&quot;geometry&quot;&gt;&#xA;            &lt;mxPoint as=&quot;offset&quot; /&gt;&#xA;            &lt;Array as=&quot;points&quot;&gt;&#xA;              &lt;mxPoint x=&quot;600&quot; y=&quot;380&quot; /&gt;&#xA;            &lt;/Array&gt;&#xA;          &lt;/mxGeometry&gt;&#xA;        &lt;/mxCell&gt;&#xA;        &lt;mxCell id=&quot;e-response&quot; edge=&quot;1&quot; parent=&quot;1&quot; source=&quot;endpoint&quot; style=&quot;rounded=1;exitX=0;exitY=0.8;entryX=0.75;entryY=1;strokeWidth=1.5;strokeColor=#879596;dashed=1;dashPattern=6 3;curved=1;fontSize=8;fontStyle=2;fontColor=#545B64;labelBackgroundColor=#FFFFFF;entryDx=0;entryDy=0;&quot; target=&quot;process&quot; value=&quot;1 response (mcp_list_tools + mcp_call items)&quot;&gt;&#xA;          &lt;mxGeometry relative=&quot;1&quot; x=&quot;0.0951&quot; y=&quot;10&quot; as=&quot;geometry&quot;&gt;&#xA;            &lt;mxPoint x=&quot;2&quot; as=&quot;offset&quot; /&gt;&#xA;            &lt;Array as=&quot;points&quot;&gt;&#xA;              &lt;mxPoint x=&quot;250&quot; y=&quot;260&quot; /&gt;&#xA;            &lt;/Array&gt;&#xA;          &lt;/mxGeometry&gt;&#xA;        &lt;/mxCell&gt;&#xA;        &lt;mxCell id=&quot;legend&quot; parent=&quot;1&quot; style=&quot;rounded=1;whiteSpace=wrap;html=0;fillColor=#F2F3F3;strokeColor=#879596;strokeWidth=1;fontSize=9;verticalAlign=middle;align=center;fontColor=#545B64;arcSize=14;fontStyle=2;&quot; value=&quot;One request out, one response back — the loop runs inside the Region and the tool reaches the private system directly&quot; vertex=&quot;1&quot;&gt;&#xA;          &lt;mxGeometry height=&quot;28&quot; width=&quot;750&quot; x=&quot;30&quot; y=&quot;490&quot; as=&quot;geometry&quot; /&gt;&#xA;        &lt;/mxCell&gt;&#xA;        &lt;mxCell id=&quot;o_o7y25AFnU1UaesMd0Z-1&quot; parent=&quot;1&quot; style=&quot;sketch=0;points=[[0,0,0],[0.25,0,0],[0.5,0,0],[0.75,0,0],[1,0,0],[0,1,0],[0.25,1,0],[0.5,1,0],[0.75,1,0],[1,1,0],[0,0.25,0],[0,0.5,0],[0,0.75,0],[1,0.25,0],[1,0.5,0],[1,0.75,0]];outlineConnect=0;fontColor=#232F3E;fillColor=#01A88D;strokeColor=#ffffff;dashed=0;verticalLabelPosition=bottom;verticalAlign=top;align=center;html=1;fontSize=12;fontStyle=0;aspect=fixed;shape=mxgraph.aws4.resourceIcon;resIcon=mxgraph.aws4.bedrock;&quot; value=&quot;&quot; vertex=&quot;1&quot;&gt;&#xA;          &lt;mxGeometry height=&quot;30&quot; width=&quot;30&quot; x=&quot;370&quot; y=&quot;184&quot; as=&quot;geometry&quot; /&gt;&#xA;        &lt;/mxCell&gt;&#xA;        &lt;mxCell id=&quot;o_o7y25AFnU1UaesMd0Z-2&quot; parent=&quot;1&quot; style=&quot;sketch=0;points=[[0,0,0],[0.25,0,0],[0.5,0,0],[0.75,0,0],[1,0,0],[0,1,0],[0.25,1,0],[0.5,1,0],[0.75,1,0],[1,1,0],[0,0.25,0],[0,0.5,0],[0,0.75,0],[1,0.25,0],[1,0.5,0],[1,0.75,0]];outlineConnect=0;fontColor=#232F3E;fillColor=#ED7100;strokeColor=#ffffff;dashed=0;verticalLabelPosition=bottom;verticalAlign=top;align=center;html=1;fontSize=12;fontStyle=0;aspect=fixed;shape=mxgraph.aws4.resourceIcon;resIcon=mxgraph.aws4.lambda;&quot; value=&quot;&quot; vertex=&quot;1&quot;&gt;&#xA;          &lt;mxGeometry height=&quot;30&quot; width=&quot;30&quot; x=&quot;370&quot; y=&quot;329&quot; as=&quot;geometry&quot; /&gt;&#xA;        &lt;/mxCell&gt;&#xA;      &lt;/root&gt;&#xA;    &lt;/mxGraphModel&gt;&#xA;  &lt;/diagram&gt;&#xA;&lt;/mxfile&gt;&#xA;"><defs/><g><g data-cell-id="0"><g data-cell-id="1"><g data-cell-id="ss-label"><g><rect x="14.15" y="40.2" width="100" height="20" fill="none" stroke="none" pointer-events="all"/></g><g><g fill="#232F3E" style="fill: light-dark(rgb(35, 47, 62), rgb(189, 199, 212));" font-family="Helvetica" font-weight="bold" text-anchor="start" font-size="12px"><text x="16.15" y="55.2">Server-side</text></g></g></g><g data-cell-id="process"><g style="filter: drop-shadow(light-dark(rgba(0, 0, 0, 0.25), rgba(237, 237, 237, 0.25)) 2px 3px 2px);"><rect x="4.15" y="62.7" width="200" height="50" rx="4" ry="4" fill="#ffffff" style="fill: light-dark(rgb(255, 255, 255), rgb(18, 18, 18)); stroke: light-dark(rgb(63, 75, 87), rgb(166, 176, 187));" stroke="#3f4b57" stroke-width="2" pointer-events="all"/></g><g><g><switch><foreignObject style="overflow: visible; text-align: left;" pointer-events="none" width="100%" height="100%" requiredFeatures="http://www.w3.org/TR/SVG11/feature#Extensibility"><div xmlns="http://www.w3.org/1999/xhtml" style="display: flex; align-items: unsafe center; justify-content: unsafe center; width: 198px; height: 1px; padding-top: 88px; margin-left: 5px;"><div style="box-sizing: border-box; font-size: 0; text-align: center; color: #232F3E; "><div style="display: inline-block; font-size: 10px; font-family: Helvetica; color: light-dark(#232F3E, #bdc7d4); line-height: 1.2; pointer-events: all; font-weight: bold; white-space: normal; word-wrap: normal; ">Your process<br />(one create() call, then waits)</div></div></div></foreignObject><text x="104" y="85" fill="#232F3E" style="fill: light-dark(rgb(35, 47, 62), rgb(189, 199, 212));" font-family="Helvetica" font-size="10px" text-anchor="middle" font-weight="bold"><tspan x="104" y="85">Your process</tspan><tspan x="104" y="97">(one create() call, then waits)</tspan></text></switch></g></g></g><g data-cell-id="region"><g><rect x="274.15" y="0.2" width="480" height="340" rx="10.2" ry="10.2" fill-opacity="0.5" fill="#e8f4fd" style="fill: light-dark(rgb(232, 244, 253), rgb(20, 31, 38)); stroke: light-dark(rgb(20, 126, 180), rgb(70, 161, 208));" stroke="#147eb4" stroke-opacity="0.5" stroke-width="2" pointer-events="all"/></g></g><g data-cell-id="region-label"><g><rect x="289.15" y="10.2" width="100" height="20" fill="none" stroke="none" pointer-events="all"/></g><g><g fill="#147EB4" style="fill: light-dark(rgb(20, 126, 180), rgb(70, 161, 208));" font-family="Helvetica" font-weight="bold" text-anchor="start" font-size="11px"><text x="291.15" y="24.7">AWS Region</text></g></g></g><g data-cell-id="endpoint"><g style="filter: drop-shadow(light-dark(rgba(0, 0, 0, 0.25), rgba(237, 237, 237, 0.25)) 2px 3px 2px);"><rect x="309.15" y="50.2" width="250" height="75" rx="6" ry="6" fill="#ffffff" style="fill: light-dark(rgb(255, 255, 255), rgb(18, 18, 18)); stroke: light-dark(rgb(63, 75, 87), rgb(166, 176, 187));" stroke="#3f4b57" stroke-width="2" pointer-events="all"/></g><g><g><switch><foreignObject style="overflow: visible; text-align: left;" pointer-events="none" width="100%" height="100%" requiredFeatures="http://www.w3.org/TR/SVG11/feature#Extensibility"><div xmlns="http://www.w3.org/1999/xhtml" style="display: flex; align-items: unsafe center; justify-content: unsafe center; width: 248px; height: 1px; padding-top: 88px; margin-left: 310px;"><div style="box-sizing: border-box; font-size: 0; text-align: center; color: #232F3E; "><div style="display: inline-block; font-size: 10px; font-family: Helvetica; color: light-dark(#232F3E, #bdc7d4); line-height: 1.2; pointer-events: all; white-space: normal; word-wrap: normal; ">bedrock-mantle endpoint<br /><br />discover → decide → invoke → feed back<br />(Bedrock runs the loop)</div></div></div></foreignObject><text x="434" y="73" fill="#232F3E" style="fill: light-dark(rgb(35, 47, 62), rgb(189, 199, 212));" font-family="Helvetica" font-size="10px" text-anchor="middle"><tspan x="434" y="73">bedrock-mantle endpoint</tspan><tspan x="434" y="85"></tspan><tspan x="434" y="97">discover → decide → invoke → feed back</tspan><tspan x="434" y="109">(Bedrock runs the loop)</tspan></text></switch></g></g></g><g data-cell-id="lambda"><g style="filter: drop-shadow(light-dark(rgba(0, 0, 0, 0.25), rgba(237, 237, 237, 0.25)) 2px 3px 2px);"><rect x="324.15" y="190.2" width="220" height="80" rx="6.4" ry="6.4" fill="#fff4e8" style="fill: light-dark(rgb(255, 244, 232), rgb(34, 25, 14)); stroke: light-dark(rgb(224, 125, 26), rgb(191, 106, 21));" stroke="#e07d1a" stroke-width="2" pointer-events="all"/></g><g><g><switch><foreignObject style="overflow: visible; text-align: left;" pointer-events="none" width="100%" height="100%" requiredFeatures="http://www.w3.org/TR/SVG11/feature#Extensibility"><div xmlns="http://www.w3.org/1999/xhtml" style="display: flex; align-items: unsafe center; justify-content: unsafe center; width: 218px; height: 1px; padding-top: 230px; margin-left: 325px;"><div style="box-sizing: border-box; font-size: 0; text-align: center; color: #8A4B00; "><div style="display: inline-block; font-size: 9px; font-family: Helvetica; color: light-dark(#8A4B00, #d69f5f); line-height: 1.2; pointer-events: all; white-space: normal; word-wrap: normal; ">Lambda function<br />(MCP: tools/list + tools/call)<br /><br />connector_id = function ARN<br />require_approval = "never"</div></div></div></foreignObject><text x="434" y="211" fill="#8A4B00" style="fill: light-dark(rgb(138, 75, 0), rgb(214, 159, 95));" font-family="Helvetica" font-size="9px" text-anchor="middle"><tspan x="434" y="211">Lambda function</tspan><tspan x="434" y="222">(MCP: tools/list + tools/call)</tspan><tspan x="434" y="233"></tspan><tspan x="434" y="244">connector_id = function ARN</tspan><tspan x="434" y="255">require_approval = "never"</tspan></text></switch></g></g></g><g data-cell-id="iam-trap"><g transform="translate(0.5,0.5)"><rect x="324.15" y="280.2" width="220" height="30" rx="3.6" ry="3.6" fill="#f9f2f4" style="fill: light-dark(rgb(249, 242, 244), rgb(32, 26, 28)); stroke: light-dark(rgb(201, 24, 74), rgb(255, 146, 189));" stroke="#c9184a" pointer-events="all"/></g><g><g><switch><foreignObject style="overflow: visible; text-align: left;" pointer-events="none" width="100%" height="100%" requiredFeatures="http://www.w3.org/TR/SVG11/feature#Extensibility"><div xmlns="http://www.w3.org/1999/xhtml" style="display: flex; align-items: unsafe center; justify-content: unsafe center; width: 218px; height: 1px; padding-top: 295px; margin-left: 325px;"><div style="box-sizing: border-box; font-size: 0; text-align: center; color: #6B0F2A; "><div style="display: inline-block; font-size: 8px; font-family: Helvetica; color: light-dark(#6B0F2A, #ffbbd2); line-height: 1.2; pointer-events: all; white-space: normal; word-wrap: normal; ">Must carry the same role as the caller<br />— no credentials are passed</div></div></div></foreignObject><text x="434" y="293" fill="#6B0F2A" style="fill: light-dark(rgb(107, 15, 42), rgb(255, 187, 210));" font-family="Helvetica" font-size="8px" text-anchor="middle"><tspan x="434" y="293">Must carry the same role as the caller</tspan><tspan x="434" y="303">— no credentials are passed</tspan></text></switch></g></g></g><g data-cell-id="o_o7y25AFnU1UaesMd0Z-3"><g transform="translate(0.5,0.5)"><path d="M 624.15 220.2 L 584.15 220.2 L 550.52 220.2" fill="none" stroke="#000000" style="stroke: light-dark(rgb(0, 0, 0), rgb(255, 255, 255));" stroke-miterlimit="10" pointer-events="stroke"/><path d="M 545.27 220.2 L 552.27 216.7 L 550.52 220.2 L 552.27 223.7 Z" fill="#000000" style="fill: light-dark(rgb(0, 0, 0), rgb(255, 255, 255)); stroke: light-dark(rgb(0, 0, 0), rgb(255, 255, 255));" stroke="#000000" stroke-miterlimit="10" pointer-events="all"/></g></g><g data-cell-id="vpc"><g style="filter: drop-shadow(light-dark(rgba(0, 0, 0, 0.25), rgba(237, 237, 237, 0.25)) 2px 3px 2px);"><rect x="624.15" y="205.2" width="120" height="50" rx="4" ry="4" fill="#f0f8ff" style="fill: light-dark(rgb(240, 248, 255), rgb(19, 26, 32)); stroke: light-dark(rgb(0, 115, 187), rgb(72, 171, 233));" stroke="#0073bb" stroke-width="1.5" stroke-dasharray="9 4.5" pointer-events="all"/></g><g><g><switch><foreignObject style="overflow: visible; text-align: left;" pointer-events="none" width="100%" height="100%" requiredFeatures="http://www.w3.org/TR/SVG11/feature#Extensibility"><div xmlns="http://www.w3.org/1999/xhtml" style="display: flex; align-items: unsafe center; justify-content: unsafe center; width: 118px; height: 1px; padding-top: 230px; margin-left: 625px;"><div style="box-sizing: border-box; font-size: 0; text-align: center; color: #232F3E; "><div style="display: inline-block; font-size: 9px; font-family: Helvetica; color: light-dark(#232F3E, #bdc7d4); line-height: 1.2; pointer-events: all; white-space: normal; word-wrap: normal; ">Private VPC resource<br />(described, not deployed)</div></div></div></foreignObject><text x="684" y="227" fill="#232F3E" style="fill: light-dark(rgb(35, 47, 62), rgb(189, 199, 212));" font-family="Helvetica" font-size="9px" text-anchor="middle"><tspan x="684" y="227">Private VPC resource</tspan><tspan x="684" y="238">(described, not deployed)</tspan></text></switch></g></g></g><g data-cell-id="e1"><g><path d="M 204.15 87.7 Q 204.15 87.7 300.91 87.7" fill="none" stroke="#545b64" style="stroke: light-dark(rgb(84, 91, 100), rgb(154, 160, 168));" stroke-width="2" stroke-miterlimit="10" pointer-events="stroke"/><path d="M 306.91 87.7 L 298.91 91.7 L 300.91 87.7 L 298.91 83.7 Z" fill="#545b64" style="fill: light-dark(rgb(84, 91, 100), rgb(154, 160, 168)); stroke: light-dark(rgb(84, 91, 100), rgb(154, 160, 168));" stroke="#545b64" stroke-width="2" stroke-miterlimit="10" pointer-events="all"/></g><g><g fill="#545B64" style="fill: light-dark(rgb(84, 91, 100), rgb(154, 160, 168));" font-family="Helvetica" font-weight="bold" text-anchor="middle" font-size="9px"><rect fill="#FFFFFF" stroke="none" x="237" y="83" width="40" height="12" style="fill: light-dark(rgb(255, 255, 255), rgb(18, 18, 18));" stroke-width="0"/><text x="256.53" y="91.2">1 request</text></g></g></g><g data-cell-id="e2"><g><path d="M 434.15 125.2 L 434.15 181.96" fill="none" stroke="#e07d1a" style="stroke: light-dark(rgb(224, 125, 26), rgb(191, 106, 21));" stroke-width="2" stroke-miterlimit="10" pointer-events="stroke"/><path d="M 434.15 187.96 L 430.15 179.96 L 434.15 181.96 L 438.15 179.96 Z" fill="#e07d1a" style="fill: light-dark(rgb(224, 125, 26), rgb(191, 106, 21)); stroke: light-dark(rgb(224, 125, 26), rgb(191, 106, 21));" stroke="#e07d1a" stroke-width="2" stroke-miterlimit="10" pointer-events="all"/></g></g><g data-cell-id="e3"><g><path d="M 544.15 230.2 Q 574.15 250.2 617.37 232.91" fill="none" stroke="#0073bb" style="stroke: light-dark(rgb(0, 115, 187), rgb(72, 171, 233));" stroke-width="1.5" stroke-miterlimit="10" pointer-events="stroke"/><path d="M 622.59 230.82 L 617.02 237.09 L 617.37 232.91 L 614.24 230.13 Z" fill="#0073bb" style="fill: light-dark(rgb(0, 115, 187), rgb(72, 171, 233)); stroke: light-dark(rgb(0, 115, 187), rgb(72, 171, 233));" stroke="#0073bb" stroke-width="1.5" stroke-miterlimit="10" pointer-events="all"/></g><g><g fill="#0073BB" style="fill: light-dark(rgb(0, 115, 187), rgb(72, 171, 233));" font-family="Helvetica" font-style="italic" text-anchor="middle" font-size="8px"><rect fill="#FFFFFF" stroke="none" x="552" y="256" width="84" height="11" style="fill: light-dark(rgb(255, 255, 255), rgb(18, 18, 18));" stroke-width="0"/><text x="593.85" y="263.63">reaches private system</text></g></g></g><g data-cell-id="e-response"><g><path d="M 309.15 110.2 Q 224.15 130.2 161.23 114.47" fill="none" stroke="#879596" style="stroke: light-dark(rgb(135, 149, 150), rgb(102, 114, 115));" stroke-width="1.5" stroke-miterlimit="10" stroke-dasharray="9 4.5" pointer-events="stroke"/><path d="M 155.78 113.11 L 163.96 111.29 L 161.23 114.47 L 162.14 118.56 Z" fill="#879596" style="fill: light-dark(rgb(135, 149, 150), rgb(102, 114, 115)); stroke: light-dark(rgb(135, 149, 150), rgb(102, 114, 115));" stroke="#879596" stroke-width="1.5" stroke-miterlimit="10" pointer-events="all"/></g><g><g fill="#545B64" style="fill: light-dark(rgb(84, 91, 100), rgb(154, 160, 168));" font-family="Helvetica" font-style="italic" text-anchor="middle" font-size="8px"><rect fill="#FFFFFF" stroke="none" x="143" y="135" width="162" height="11" style="fill: light-dark(rgb(255, 255, 255), rgb(18, 18, 18));" stroke-width="0"/><text x="223.44" y="142.83">1 response (mcp_list_tools + mcp_call items)</text></g></g></g><g data-cell-id="legend"><g transform="translate(0.5,0.5)"><rect x="4.15" y="360.2" width="750" height="28" rx="3.92" ry="3.92" fill="#f2f3f3" style="fill: light-dark(rgb(242, 243, 243), rgb(27, 28, 28)); stroke: light-dark(rgb(135, 149, 150), rgb(102, 114, 115));" stroke="#879596" pointer-events="all"/></g><g><g><switch><foreignObject style="overflow: visible; text-align: left;" pointer-events="none" width="100%" height="100%" requiredFeatures="http://www.w3.org/TR/SVG11/feature#Extensibility"><div xmlns="http://www.w3.org/1999/xhtml" style="display: flex; align-items: unsafe center; justify-content: unsafe center; width: 748px; height: 1px; padding-top: 374px; margin-left: 5px;"><div style="box-sizing: border-box; font-size: 0; text-align: center; color: #545B64; "><div style="display: inline-block; font-size: 9px; font-family: Helvetica; color: light-dark(#545B64, #9aa0a8); line-height: 1.2; pointer-events: all; font-style: italic; white-space: normal; word-wrap: normal; ">One request out, one response back — the loop runs inside the Region and the tool reaches the private system directly</div></div></div></foreignObject><text x="379" y="377" fill="#545B64" style="fill: light-dark(rgb(84, 91, 100), rgb(154, 160, 168));" font-family="Helvetica" font-size="9px" text-anchor="middle" font-style="italic">One request out, one response back — the loop runs inside the Region and the tool reaches the private system directly</text></switch></g></g></g><g data-cell-id="o_o7y25AFnU1UaesMd0Z-1"><g transform="translate(0.5,0.5)"><path d="M 344.15 54.2 L 374.15 54.2 L 374.15 84.2 L 344.15 84.2 Z" fill="#01a88d" style="fill: light-dark(rgb(1, 168, 141), rgb(14, 157, 134));" stroke="none" pointer-events="all"/><path d="M 369.43 68.78 C 368.96 68.78 368.57 68.4 368.57 67.92 C 368.57 67.45 368.96 67.07 369.43 67.07 C 369.9 67.07 370.29 67.45 370.29 67.92 C 370.29 68.4 369.9 68.78 369.43 68.78 Z M 355.77 80.3 L 354.38 79.49 L 357.24 77.71 L 356.78 76.98 L 353.55 79.01 L 351.01 77.53 L 351.01 73.72 L 353.39 72.13 L 352.92 71.42 L 350.57 72.99 L 348.01 71.53 L 348.01 69.46 L 350.8 67.87 L 350.37 67.12 L 348.01 68.47 L 348.01 66.89 L 350.58 65.42 L 353.15 66.89 L 353.15 68.54 L 351.22 69.7 L 351.66 70.43 L 353.58 69.28 L 355.5 70.43 L 355.94 69.7 L 354.01 68.54 L 354.01 66.87 L 356.39 65.28 C 356.51 65.2 356.58 65.07 356.58 64.93 L 356.58 61.93 L 355.72 61.93 L 355.72 64.7 L 353.56 66.14 L 351.01 64.68 L 351.01 60.89 L 353.15 59.64 L 353.15 63.21 L 354.01 63.21 L 354.01 59.14 L 355.77 58.11 L 359.15 59.24 L 359.15 71.54 L 352.93 75.27 L 353.37 76 L 359.15 72.53 L 359.15 79.18 Z M 368.57 73.49 C 368.57 73.96 368.19 74.35 367.72 74.35 C 367.24 74.35 366.86 73.96 366.86 73.49 C 366.86 73.02 367.24 72.63 367.72 72.63 C 368.19 72.63 368.57 73.02 368.57 73.49 Z M 364.29 77.77 C 364.29 78.25 363.91 78.63 363.43 78.63 C 362.96 78.63 362.58 78.25 362.58 77.77 C 362.58 77.3 362.96 76.92 363.43 76.92 C 363.91 76.92 364.29 77.3 364.29 77.77 Z M 363.86 60.64 C 363.86 60.17 364.25 59.79 364.72 59.79 C 365.19 59.79 365.57 60.17 365.57 60.64 C 365.57 61.12 365.19 61.5 364.72 61.5 C 364.25 61.5 363.86 61.12 363.86 60.64 Z M 369.43 66.21 C 368.63 66.21 367.97 66.76 367.78 67.5 L 360.01 67.5 L 360.01 65.35 L 364.72 65.35 C 364.95 65.35 365.15 65.16 365.15 64.93 L 365.15 62.3 C 365.88 62.1 366.43 61.44 366.43 60.64 C 366.43 59.7 365.66 58.93 364.72 58.93 C 363.77 58.93 363 59.7 363 60.64 C 363 61.44 363.55 62.1 364.29 62.3 L 364.29 64.5 L 360.01 64.5 L 360.01 58.93 C 360.01 58.75 359.89 58.58 359.71 58.52 L 355.86 57.24 C 355.74 57.2 355.61 57.21 355.51 57.27 L 350.37 60.27 C 350.24 60.35 350.16 60.49 350.16 60.64 L 350.16 64.68 L 347.37 66.27 C 347.24 66.34 347.16 66.48 347.16 66.64 L 347.16 71.78 C 347.16 71.93 347.24 72.07 347.37 72.15 L 350.16 73.74 L 350.16 77.77 C 350.16 77.93 350.24 78.07 350.37 78.14 L 355.51 81.14 C 355.57 81.18 355.65 81.2 355.72 81.2 C 355.77 81.2 355.82 81.19 355.86 81.18 L 359.71 79.89 C 359.89 79.83 360.01 79.67 360.01 79.49 L 360.01 74.35 L 363 74.35 L 363 76.12 C 362.27 76.31 361.72 76.98 361.72 77.77 C 361.72 78.72 362.49 79.49 363.43 79.49 C 364.38 79.49 365.15 78.72 365.15 77.77 C 365.15 76.98 364.6 76.31 363.86 76.12 L 363.86 73.92 C 363.86 73.68 363.67 73.49 363.43 73.49 L 360.01 73.49 L 360.01 71.35 L 365.36 71.35 L 366.28 72.57 C 366.1 72.84 366 73.15 366 73.49 C 366 74.44 366.77 75.2 367.72 75.2 C 368.66 75.2 369.43 74.44 369.43 73.49 C 369.43 72.55 368.66 71.78 367.72 71.78 C 367.42 71.78 367.15 71.86 366.91 71.99 L 365.92 70.66 C 365.84 70.56 365.71 70.49 365.57 70.49 L 360.01 70.49 L 360.01 68.35 L 367.78 68.35 C 367.97 69.09 368.63 69.64 369.43 69.64 C 370.37 69.64 371.14 68.87 371.14 67.92 C 371.14 66.98 370.37 66.21 369.43 66.21 Z" fill="#ffffff" style="fill: light-dark(rgb(255, 255, 255), rgb(18, 18, 18));" stroke="none" pointer-events="all"/></g></g><g data-cell-id="o_o7y25AFnU1UaesMd0Z-2"><g transform="translate(0.5,0.5)"><path d="M 344.15 199.2 L 374.15 199.2 L 374.15 229.2 L 344.15 229.2 Z" fill="#ed7100" style="fill: light-dark(rgb(237, 113, 0), rgb(216, 109, 12));" stroke="none" pointer-events="all"/><path d="M 354.02 225.34 L 348.7 225.34 L 354.59 213.04 L 357.25 218.53 Z M 354.97 211.87 C 354.9 211.72 354.75 211.62 354.58 211.62 L 354.58 211.62 C 354.42 211.62 354.27 211.72 354.19 211.87 L 347.63 225.59 C 347.57 225.72 347.58 225.88 347.66 226 C 347.73 226.12 347.87 226.2 348.02 226.2 L 354.29 226.2 C 354.46 226.2 354.61 226.1 354.68 225.95 L 358.12 218.71 C 358.17 218.59 358.17 218.46 358.11 218.34 Z M 369.87 225.34 L 364.59 225.34 L 356.1 207.59 C 356.03 207.44 355.88 207.34 355.72 207.34 L 352.26 207.34 L 352.26 203.06 L 359.04 203.06 L 367.48 220.81 C 367.55 220.96 367.71 221.06 367.87 221.06 L 369.87 221.06 Z M 370.3 220.2 L 368.14 220.2 L 359.7 202.44 C 359.63 202.3 359.48 202.2 359.31 202.2 L 351.83 202.2 C 351.59 202.2 351.4 202.39 351.4 202.63 L 351.4 207.77 C 351.4 207.88 351.44 207.99 351.52 208.07 C 351.6 208.15 351.71 208.2 351.83 208.2 L 355.44 208.2 L 363.93 225.96 C 364 226.1 364.15 226.2 364.32 226.2 L 370.3 226.2 C 370.54 226.2 370.73 226.01 370.73 225.77 L 370.73 220.63 C 370.73 220.39 370.54 220.2 370.3 220.2 Z" fill="#ffffff" style="fill: light-dark(rgb(255, 255, 255), rgb(18, 18, 18));" stroke="none" pointer-events="all"/></g></g></g></g></g><switch><g requiredFeatures="http://www.w3.org/TR/SVG11/feature#Extensibility"/><a transform="translate(0,-5)" xlink:href="https://www.drawio.com/doc/faq/svg-export-text-problems" target="_blank"><text text-anchor="middle" font-size="10px" x="50%" y="100%">Text is not SVG - cannot display</text></a></switch></svg>